<svg xmlns="http://www.w3.org/2000/svg" width="1200" height="630" viewBox="0 0 1200 630" role="img" aria-label="シフト自動作成 — 労働基準法と現場のルールブックで組むシフト作成アプリ">
  <defs>
    <style>
      .t  { font-family: "Yu Gothic UI", "Hiragino Kaku Gothic ProN", "Noto Sans JP", Meiryo, sans-serif; }
      .title { font-size: 78px; font-weight: 700; letter-spacing: .02em; fill: #111111; }
      .sub   { font-size: 27px; font-weight: 500; fill: #555555; }
      .tag   { font-size: 21px; font-weight: 700; fill: #111111; }
      .url   { font-size: 20px; font-weight: 500; fill: #888888; letter-spacing: .02em; }
    </style>
  </defs>

  <rect width="1200" height="630" fill="#ffffff"/>
  <rect x="0" y="0" width="14" height="630" fill="#111111"/>

  <!-- 右側：シフト表のモチーフ（塗りの濃淡だけで表現） -->
  <g transform="translate(690 158)">
    <!-- 行1 --><rect x="0"   y="0"   width="46" height="40" rx="7" fill="#111111"/><rect x="52"  y="0"   width="46" height="40" rx="7" fill="none" stroke="#e0e0e0" stroke-width="1.5"/><rect x="104" y="0"   width="46" height="40" rx="7" fill="#9a9a9a"/><rect x="156" y="0"   width="46" height="40" rx="7" fill="none" stroke="#e0e0e0" stroke-width="1.5"/><rect x="208" y="0"   width="46" height="40" rx="7" fill="none" stroke="#e0e0e0" stroke-width="1.5"/><rect x="260" y="0"   width="46" height="40" rx="7" fill="#5a5a5a"/><rect x="312" y="0"   width="46" height="40" rx="7" fill="none" stroke="#e0e0e0" stroke-width="1.5"/><rect x="364" y="0"   width="46" height="40" rx="7" fill="none" stroke="#e0e0e0" stroke-width="1.5"/><rect x="416" y="0"   width="46" height="40" rx="7" fill="#111111"/>
    <!-- 行2 --><rect x="0"   y="46"  width="46" height="40" rx="7" fill="none" stroke="#e0e0e0" stroke-width="1.5"/><rect x="52"  y="46"  width="46" height="40" rx="7" fill="#111111"/><rect x="104" y="46"  width="46" height="40" rx="7" fill="none" stroke="#e0e0e0" stroke-width="1.5"/><rect x="156" y="46"  width="46" height="40" rx="7" fill="#5a5a5a"/><rect x="208" y="46"  width="46" height="40" rx="7" fill="none" stroke="#e0e0e0" stroke-width="1.5"/><rect x="260" y="46"  width="46" height="40" rx="7" fill="none" stroke="#e0e0e0" stroke-width="1.5"/><rect x="312" y="46"  width="46" height="40" rx="7" fill="#9a9a9a"/><rect x="364" y="46"  width="46" height="40" rx="7" fill="none" stroke="#e0e0e0" stroke-width="1.5"/><rect x="416" y="46"  width="46" height="40" rx="7" fill="none" stroke="#e0e0e0" stroke-width="1.5"/>
    <!-- 行3 --><rect x="0"   y="92"  width="46" height="40" rx="7" fill="#5a5a5a"/><rect x="52"  y="92"  width="46" height="40" rx="7" fill="none" stroke="#e0e0e0" stroke-width="1.5"/><rect x="104" y="92"  width="46" height="40" rx="7" fill="none" stroke="#e0e0e0" stroke-width="1.5"/><rect x="156" y="92"  width="46" height="40" rx="7" fill="#111111"/><rect x="208" y="92"  width="46" height="40" rx="7" fill="none" stroke="#e0e0e0" stroke-width="1.5"/><rect x="260" y="92"  width="46" height="40" rx="7" fill="#9a9a9a"/><rect x="312" y="92"  width="46" height="40" rx="7" fill="none" stroke="#e0e0e0" stroke-width="1.5"/><rect x="364" y="92"  width="46" height="40" rx="7" fill="#111111"/><rect x="416" y="92"  width="46" height="40" rx="7" fill="none" stroke="#e0e0e0" stroke-width="1.5"/>
    <!-- 行4 --><rect x="0"   y="138" width="46" height="40" rx="7" fill="none" stroke="#e0e0e0" stroke-width="1.5"/><rect x="52"  y="138" width="46" height="40" rx="7" fill="#9a9a9a"/><rect x="104" y="138" width="46" height="40" rx="7" fill="#111111"/><rect x="156" y="138" width="46" height="40" rx="7" fill="none" stroke="#e0e0e0" stroke-width="1.5"/><rect x="208" y="138" width="46" height="40" rx="7" fill="#5a5a5a"/><rect x="260" y="138" width="46" height="40" rx="7" fill="none" stroke="#e0e0e0" stroke-width="1.5"/><rect x="312" y="138" width="46" height="40" rx="7" fill="none" stroke="#e0e0e0" stroke-width="1.5"/><rect x="364" y="138" width="46" height="40" rx="7" fill="none" stroke="#e0e0e0" stroke-width="1.5"/><rect x="416" y="138" width="46" height="40" rx="7" fill="#5a5a5a"/>
    <!-- 行5 --><rect x="0"   y="184" width="46" height="40" rx="7" fill="#111111"/><rect x="52"  y="184" width="46" height="40" rx="7" fill="none" stroke="#e0e0e0" stroke-width="1.5"/><rect x="104" y="184" width="46" height="40" rx="7" fill="#5a5a5a"/><rect x="156" y="184" width="46" height="40" rx="7" fill="none" stroke="#e0e0e0" stroke-width="1.5"/><rect x="208" y="184" width="46" height="40" rx="7" fill="none" stroke="#e0e0e0" stroke-width="1.5"/><rect x="260" y="184" width="46" height="40" rx="7" fill="#111111"/><rect x="312" y="184" width="46" height="40" rx="7" fill="none" stroke="#e0e0e0" stroke-width="1.5"/><rect x="364" y="184" width="46" height="40" rx="7" fill="#9a9a9a"/><rect x="416" y="184" width="46" height="40" rx="7" fill="none" stroke="#e0e0e0" stroke-width="1.5"/>
    <!-- 行6 --><rect x="0"   y="230" width="46" height="40" rx="7" fill="none" stroke="#e0e0e0" stroke-width="1.5"/><rect x="52"  y="230" width="46" height="40" rx="7" fill="#5a5a5a"/><rect x="104" y="230" width="46" height="40" rx="7" fill="none" stroke="#e0e0e0" stroke-width="1.5"/><rect x="156" y="230" width="46" height="40" rx="7" fill="#9a9a9a"/><rect x="208" y="230" width="46" height="40" rx="7" fill="#111111"/><rect x="260" y="230" width="46" height="40" rx="7" fill="none" stroke="#e0e0e0" stroke-width="1.5"/><rect x="312" y="230" width="46" height="40" rx="7" fill="#5a5a5a"/><rect x="364" y="230" width="46" height="40" rx="7" fill="none" stroke="#e0e0e0" stroke-width="1.5"/><rect x="416" y="230" width="46" height="40" rx="7" fill="none" stroke="#e0e0e0" stroke-width="1.5"/>
    <!-- 行7 --><rect x="0"   y="276" width="46" height="40" rx="7" fill="none" stroke="#e0e0e0" stroke-width="1.5"/><rect x="52"  y="276" width="46" height="40" rx="7" fill="none" stroke="#e0e0e0" stroke-width="1.5"/><rect x="104" y="276" width="46" height="40" rx="7" fill="#111111"/><rect x="156" y="276" width="46" height="40" rx="7" fill="none" stroke="#e0e0e0" stroke-width="1.5"/><rect x="208" y="276" width="46" height="40" rx="7" fill="#9a9a9a"/><rect x="260" y="276" width="46" height="40" rx="7" fill="none" stroke="#e0e0e0" stroke-width="1.5"/><rect x="312" y="276" width="46" height="40" rx="7" fill="#111111"/><rect x="364" y="276" width="46" height="40" rx="7" fill="#5a5a5a"/><rect x="416" y="276" width="46" height="40" rx="7" fill="none" stroke="#e0e0e0" stroke-width="1.5"/>
    <!-- 行8 --><rect x="0"   y="322" width="46" height="40" rx="7" fill="#9a9a9a"/><rect x="52"  y="322" width="46" height="40" rx="7" fill="none" stroke="#e0e0e0" stroke-width="1.5"/><rect x="104" y="322" width="46" height="40" rx="7" fill="none" stroke="#e0e0e0" stroke-width="1.5"/><rect x="156" y="322" width="46" height="40" rx="7" fill="#5a5a5a"/><rect x="208" y="322" width="46" height="40" rx="7" fill="none" stroke="#e0e0e0" stroke-width="1.5"/><rect x="260" y="322" width="46" height="40" rx="7" fill="none" stroke="#e0e0e0" stroke-width="1.5"/><rect x="312" y="322" width="46" height="40" rx="7" fill="none" stroke="#e0e0e0" stroke-width="1.5"/><rect x="364" y="322" width="46" height="40" rx="7" fill="#111111"/><rect x="416" y="322" width="46" height="40" rx="7" fill="none" stroke="#e0e0e0" stroke-width="1.5"/>
  </g>

  <!-- 右端をフェードさせてテキスト側を締める -->
  <rect x="1150" y="0" width="50" height="630" fill="#ffffff"/>

  <g class="t">
    <text x="74" y="280" class="title">シフト自動作成</text>
    <text x="78" y="340" class="sub">労働基準法と現場のルールブックで組む</text>
    <text x="78" y="380" class="sub">シフト作成アプリ</text>

    <g transform="translate(78 424)">
      <rect x="0"   y="0" width="132" height="42" rx="21" fill="none" stroke="#111111" stroke-width="2"/>
      <text x="24"  y="28" class="tag">AI不使用</text>
      <rect x="144" y="0" width="176" height="42" rx="21" fill="none" stroke="#111111" stroke-width="2"/>
      <text x="168" y="28" class="tag">ブラウザ完結</text>
      <rect x="332" y="0" width="90"  height="42" rx="21" fill="none" stroke="#111111" stroke-width="2"/>
      <text x="356" y="28" class="tag">無料</text>
    </g>

    <text x="74" y="538" class="url">tmk4men.github.io/shift-maker</text>
  </g>
</svg>
